<mxfile host="app.diagrams.net" agent="Mozilla/5.0 (Windows NT 10.0; Win64; x64) AppleWebKit/537.36 (KHTML, like Gecko) Chrome/132.0.0.0 Safari/537.36" version="26.0.10">
  <diagram name="Page-1" id="RiwiziOx90WIo7c1T4Ze">
    <mxGraphModel dx="1036" dy="543" grid="1" gridSize="10" guides="1" tooltips="1" connect="1" arrows="1" fold="1" page="1" pageScale="1" pageWidth="1100" pageHeight="850" math="0" shadow="0">
      <root>
        <mxCell id="0" />
        <mxCell id="1" parent="0" />
        <mxCell id="1yCJpeNbYUM7dJ_sFZWB-1" value="&lt;h1 style=&quot;box-sizing: border-box; border: 0px solid; --tw-border-spacing-x: 0; --tw-border-spacing-y: 0; --tw-translate-x: 0; --tw-translate-y: 0; --tw-rotate: 0; --tw-skew-x: 0; --tw-skew-y: 0; --tw-scale-x: 1; --tw-scale-y: 1; --tw-pan-x: ; --tw-pan-y: ; --tw-pinch-zoom: ; --tw-scroll-snap-strictness: proximity; --tw-gradient-from-position: ; --tw-gradient-via-position: ; --tw-gradient-to-position: ; --tw-ordinal: ; --tw-slashed-zero: ; --tw-numeric-figure: ; --tw-numeric-spacing: ; --tw-numeric-fraction: ; --tw-ring-inset: ; --tw-ring-offset-width: 0px; --tw-ring-offset-color: #fff; --tw-ring-color: rgba(59,130,246,.5); --tw-ring-offset-shadow: 0 0 #0000; --tw-ring-shadow: 0 0 #0000; --tw-shadow: 0 0 #0000; --tw-shadow-colored: 0 0 #0000; --tw-blur: ; --tw-brightness: ; --tw-contrast: ; --tw-grayscale: ; --tw-hue-rotate: ; --tw-invert: ; --tw-saturate: ; --tw-sepia: ; --tw-drop-shadow: ; --tw-backdrop-blur: ; --tw-backdrop-brightness: ; --tw-backdrop-contrast: ; --tw-backdrop-grayscale: ; --tw-backdrop-hue-rotate: ; --tw-backdrop-invert: ; --tw-backdrop-opacity: ; --tw-backdrop-saturate: ; --tw-backdrop-sepia: ; --tw-contain-size: ; --tw-contain-layout: ; --tw-contain-paint: ; --tw-contain-style: ; font-size: 1.5rem; margin: 0px; font-family: &amp;quot;Nunito Sans&amp;quot;, sans-serif; line-height: 2rem; color: var(--text-color,#000000); text-align: start; background-color: rgb(255, 255, 255);&quot; class=&quot;sc-6a4c5dd9-0 dXTcni&quot;&gt;Système de Gestion de Cabinet Médical&lt;/h1&gt;" style="shape=umlFrame;whiteSpace=wrap;html=1;pointerEvents=0;width=580;height=70;" parent="1" vertex="1">
          <mxGeometry x="170" y="160" width="830" height="1010" as="geometry" />
        </mxCell>
        <mxCell id="1yCJpeNbYUM7dJ_sFZWB-25" style="rounded=0;orthogonalLoop=1;jettySize=auto;html=1;entryX=0;entryY=0.5;entryDx=0;entryDy=0;endArrow=none;startFill=0;" parent="1" source="1yCJpeNbYUM7dJ_sFZWB-2" target="1yCJpeNbYUM7dJ_sFZWB-5" edge="1">
          <mxGeometry relative="1" as="geometry" />
        </mxCell>
        <mxCell id="1yCJpeNbYUM7dJ_sFZWB-26" style="rounded=0;orthogonalLoop=1;jettySize=auto;html=1;entryX=0;entryY=0.5;entryDx=0;entryDy=0;endArrow=none;startFill=0;" parent="1" source="1yCJpeNbYUM7dJ_sFZWB-2" target="1yCJpeNbYUM7dJ_sFZWB-10" edge="1">
          <mxGeometry relative="1" as="geometry" />
        </mxCell>
        <mxCell id="1yCJpeNbYUM7dJ_sFZWB-27" style="rounded=0;orthogonalLoop=1;jettySize=auto;html=1;entryX=0;entryY=0.5;entryDx=0;entryDy=0;endArrow=none;startFill=0;" parent="1" source="1yCJpeNbYUM7dJ_sFZWB-2" target="1yCJpeNbYUM7dJ_sFZWB-9" edge="1">
          <mxGeometry relative="1" as="geometry" />
        </mxCell>
        <mxCell id="1yCJpeNbYUM7dJ_sFZWB-28" style="rounded=0;orthogonalLoop=1;jettySize=auto;html=1;entryX=0;entryY=0.5;entryDx=0;entryDy=0;endArrow=none;startFill=0;" parent="1" source="1yCJpeNbYUM7dJ_sFZWB-2" target="1yCJpeNbYUM7dJ_sFZWB-8" edge="1">
          <mxGeometry relative="1" as="geometry" />
        </mxCell>
        <mxCell id="1yCJpeNbYUM7dJ_sFZWB-2" value="Patient" style="shape=umlActor;verticalLabelPosition=bottom;verticalAlign=top;html=1;" parent="1" vertex="1">
          <mxGeometry x="90" y="400" width="30" height="60" as="geometry" />
        </mxCell>
        <mxCell id="1yCJpeNbYUM7dJ_sFZWB-24" style="rounded=0;orthogonalLoop=1;jettySize=auto;html=1;endArrow=none;startFill=0;" parent="1" source="1yCJpeNbYUM7dJ_sFZWB-3" target="1yCJpeNbYUM7dJ_sFZWB-6" edge="1">
          <mxGeometry relative="1" as="geometry" />
        </mxCell>
        <mxCell id="1yCJpeNbYUM7dJ_sFZWB-35" style="rounded=0;orthogonalLoop=1;jettySize=auto;html=1;entryX=0;entryY=0.5;entryDx=0;entryDy=0;endArrow=none;startFill=0;" parent="1" source="1yCJpeNbYUM7dJ_sFZWB-3" target="1yCJpeNbYUM7dJ_sFZWB-5" edge="1">
          <mxGeometry relative="1" as="geometry" />
        </mxCell>
        <mxCell id="1yCJpeNbYUM7dJ_sFZWB-3" value="Médecin" style="shape=umlActor;verticalLabelPosition=bottom;verticalAlign=top;html=1;" parent="1" vertex="1">
          <mxGeometry x="81" y="640" width="30" height="60" as="geometry" />
        </mxCell>
        <mxCell id="1yCJpeNbYUM7dJ_sFZWB-33" style="rounded=0;orthogonalLoop=1;jettySize=auto;html=1;entryX=0;entryY=0.5;entryDx=0;entryDy=0;exitX=1;exitY=0.5;exitDx=0;exitDy=0;endArrow=open;endFill=0;dashed=1;dashPattern=8 8;" parent="1" source="1yCJpeNbYUM7dJ_sFZWB-5" target="1yCJpeNbYUM7dJ_sFZWB-7" edge="1">
          <mxGeometry relative="1" as="geometry" />
        </mxCell>
        <mxCell id="YJyH6ZH2NPOHcgSRrEZ7-9" value="&amp;lt;&amp;lt;include&amp;gt;&amp;gt;" style="edgeLabel;html=1;align=center;verticalAlign=middle;resizable=0;points=[];" vertex="1" connectable="0" parent="1yCJpeNbYUM7dJ_sFZWB-33">
          <mxGeometry x="0.1837" y="2" relative="1" as="geometry">
            <mxPoint as="offset" />
          </mxGeometry>
        </mxCell>
        <mxCell id="1yCJpeNbYUM7dJ_sFZWB-5" value="s&#39;inscrire" style="ellipse;whiteSpace=wrap;html=1;" parent="1" vertex="1">
          <mxGeometry x="380" y="550" width="180" height="40" as="geometry" />
        </mxCell>
        <mxCell id="YJyH6ZH2NPOHcgSRrEZ7-13" style="edgeStyle=orthogonalEdgeStyle;rounded=0;orthogonalLoop=1;jettySize=auto;html=1;entryX=0;entryY=0.5;entryDx=0;entryDy=0;endArrow=none;startFill=0;" edge="1" parent="1" source="1yCJpeNbYUM7dJ_sFZWB-6" target="YJyH6ZH2NPOHcgSRrEZ7-3">
          <mxGeometry relative="1" as="geometry">
            <Array as="points">
              <mxPoint x="440" y="680" />
              <mxPoint x="440" y="770" />
            </Array>
          </mxGeometry>
        </mxCell>
        <mxCell id="1yCJpeNbYUM7dJ_sFZWB-6" value="&lt;pre style=&quot;font-family: var(--ds-font-family-code); overflow: auto; padding: calc(var(--ds-md-zoom)*8px)calc(var(--ds-md-zoom)*12px); text-wrap-mode: wrap; word-break: break-all; font-size: 12.573px; text-align: start; margin-top: 0px !important; margin-bottom: 0px !important;&quot;&gt;&lt;font style=&quot;color: rgb(0, 0, 0);&quot;&gt;Gérer rendez-vous&lt;/font&gt;&lt;/pre&gt;" style="ellipse;whiteSpace=wrap;html=1;" parent="1" vertex="1">
          <mxGeometry x="230" y="660" width="180" height="40" as="geometry" />
        </mxCell>
        <mxCell id="1yCJpeNbYUM7dJ_sFZWB-7" value="&lt;pre style=&quot;font-family: var(--ds-font-family-code); overflow: auto; padding: calc(var(--ds-md-zoom)*8px)calc(var(--ds-md-zoom)*12px); text-wrap-mode: wrap; word-break: break-all; font-size: 12.573px; text-align: start; margin-top: 0px !important; margin-bottom: 0px !important;&quot;&gt;&lt;font style=&quot;color: rgb(0, 0, 0);&quot;&gt;Se connecter&lt;/font&gt;&lt;/pre&gt;" style="ellipse;whiteSpace=wrap;html=1;" parent="1" vertex="1">
          <mxGeometry x="800" y="640" width="140" height="70" as="geometry" />
        </mxCell>
        <mxCell id="1yCJpeNbYUM7dJ_sFZWB-32" style="rounded=0;orthogonalLoop=1;jettySize=auto;html=1;exitX=1;exitY=0.5;exitDx=0;exitDy=0;entryX=0.042;entryY=0.262;entryDx=0;entryDy=0;entryPerimeter=0;endArrow=open;endFill=0;dashed=1;dashPattern=8 8;" parent="1" source="1yCJpeNbYUM7dJ_sFZWB-8" target="1yCJpeNbYUM7dJ_sFZWB-7" edge="1">
          <mxGeometry relative="1" as="geometry" />
        </mxCell>
        <mxCell id="YJyH6ZH2NPOHcgSRrEZ7-10" value="&amp;lt;&amp;lt;include&amp;gt;&amp;gt;" style="edgeLabel;html=1;align=center;verticalAlign=middle;resizable=0;points=[];" vertex="1" connectable="0" parent="1yCJpeNbYUM7dJ_sFZWB-32">
          <mxGeometry x="0.08" y="2" relative="1" as="geometry">
            <mxPoint as="offset" />
          </mxGeometry>
        </mxCell>
        <mxCell id="1yCJpeNbYUM7dJ_sFZWB-8" value="&lt;font style=&quot;color: rgb(0, 0, 0);&quot;&gt;&lt;span style=&quot;font-family: var(--ds-font-family-code); font-size: 12.573px; text-align: start; background-color: transparent;&quot;&gt;Recevoir notifications&lt;/span&gt;&lt;/font&gt;" style="ellipse;whiteSpace=wrap;html=1;" parent="1" vertex="1">
          <mxGeometry x="380" y="490" width="180" height="40" as="geometry" />
        </mxCell>
        <mxCell id="1yCJpeNbYUM7dJ_sFZWB-31" style="rounded=0;orthogonalLoop=1;jettySize=auto;html=1;entryX=0;entryY=0;entryDx=0;entryDy=0;exitX=1;exitY=0.5;exitDx=0;exitDy=0;dashed=1;dashPattern=8 8;endArrow=open;endFill=0;" parent="1" source="1yCJpeNbYUM7dJ_sFZWB-9" target="1yCJpeNbYUM7dJ_sFZWB-7" edge="1">
          <mxGeometry relative="1" as="geometry" />
        </mxCell>
        <mxCell id="YJyH6ZH2NPOHcgSRrEZ7-11" value="&amp;lt;&amp;lt;include&amp;gt;&amp;gt;" style="edgeLabel;html=1;align=center;verticalAlign=middle;resizable=0;points=[];" vertex="1" connectable="0" parent="1yCJpeNbYUM7dJ_sFZWB-31">
          <mxGeometry x="0.0111" y="-1" relative="1" as="geometry">
            <mxPoint as="offset" />
          </mxGeometry>
        </mxCell>
        <mxCell id="1yCJpeNbYUM7dJ_sFZWB-9" value="&lt;font style=&quot;color: rgb(0, 0, 0);&quot;&gt;&lt;span style=&quot;font-family: var(--ds-font-family-code); font-size: 12.573px; text-align: start; background-color: transparent;&quot;&gt;Consulter historique&lt;/span&gt;&lt;/font&gt;" style="ellipse;whiteSpace=wrap;html=1;" parent="1" vertex="1">
          <mxGeometry x="380" y="430" width="180" height="40" as="geometry" />
        </mxCell>
        <mxCell id="1yCJpeNbYUM7dJ_sFZWB-30" style="rounded=0;orthogonalLoop=1;jettySize=auto;html=1;exitX=1;exitY=0.5;exitDx=0;exitDy=0;dashed=1;dashPattern=8 8;endArrow=open;endFill=0;" parent="1" source="1yCJpeNbYUM7dJ_sFZWB-10" target="1yCJpeNbYUM7dJ_sFZWB-7" edge="1">
          <mxGeometry relative="1" as="geometry" />
        </mxCell>
        <mxCell id="YJyH6ZH2NPOHcgSRrEZ7-12" value="&amp;lt;&amp;lt;include&amp;gt;&amp;gt;" style="edgeLabel;html=1;align=center;verticalAlign=middle;resizable=0;points=[];" vertex="1" connectable="0" parent="1yCJpeNbYUM7dJ_sFZWB-30">
          <mxGeometry x="-0.0009" y="-1" relative="1" as="geometry">
            <mxPoint y="-1" as="offset" />
          </mxGeometry>
        </mxCell>
        <mxCell id="1yCJpeNbYUM7dJ_sFZWB-10" value="&lt;font style=&quot;color: rgb(0, 0, 0);&quot;&gt;&lt;span style=&quot;font-family: var(--ds-font-family-code); font-size: 12.573px; text-align: start; background-color: transparent;&quot;&gt;Prendre RDV&lt;/span&gt;&lt;/font&gt;" style="ellipse;whiteSpace=wrap;html=1;" parent="1" vertex="1">
          <mxGeometry x="380" y="370" width="180" height="40" as="geometry" />
        </mxCell>
        <mxCell id="1yCJpeNbYUM7dJ_sFZWB-12" value="&lt;pre style=&quot;font-family: var(--ds-font-family-code); overflow: auto; padding: calc(var(--ds-md-zoom)*8px)calc(var(--ds-md-zoom)*12px); text-wrap-mode: wrap; word-break: break-all; font-size: 12.573px; text-align: start; margin-top: 0px !important; margin-bottom: 0px !important;&quot;&gt;&lt;pre style=&quot;font-family: var(--ds-font-family-code); overflow: auto; padding: calc(var(--ds-md-zoom)*8px)calc(var(--ds-md-zoom)*12px); text-wrap-mode: wrap; word-break: break-all; margin-top: 0px !important; margin-bottom: 0px !important;&quot;&gt;&lt;font style=&quot;color: rgb(0, 0, 0);&quot;&gt;Consulter agenda&lt;/font&gt;&lt;/pre&gt;&lt;/pre&gt;" style="ellipse;whiteSpace=wrap;html=1;" parent="1" vertex="1">
          <mxGeometry x="360" y="840" width="180" height="40" as="geometry" />
        </mxCell>
        <mxCell id="1yCJpeNbYUM7dJ_sFZWB-14" value="&lt;pre style=&quot;font-family: var(--ds-font-family-code); overflow: auto; padding: calc(var(--ds-md-zoom)*8px)calc(var(--ds-md-zoom)*12px); text-wrap-mode: wrap; word-break: break-all; font-size: 12.573px; text-align: start; margin-top: 0px !important; margin-bottom: 0px !important;&quot;&gt;&lt;font style=&quot;color: rgb(0, 0, 0);&quot;&gt;Ajouter rendez-vous&lt;/font&gt;&lt;/pre&gt;" style="ellipse;whiteSpace=wrap;html=1;" parent="1" vertex="1">
          <mxGeometry x="470" y="620" width="180" height="40" as="geometry" />
        </mxCell>
        <mxCell id="1yCJpeNbYUM7dJ_sFZWB-39" style="rounded=0;orthogonalLoop=1;jettySize=auto;html=1;entryX=0;entryY=1;entryDx=0;entryDy=0;exitX=0.976;exitY=0.339;exitDx=0;exitDy=0;exitPerimeter=0;endArrow=open;endFill=0;dashed=1;dashPattern=8 8;" parent="1" source="1yCJpeNbYUM7dJ_sFZWB-15" target="1yCJpeNbYUM7dJ_sFZWB-7" edge="1">
          <mxGeometry relative="1" as="geometry" />
        </mxCell>
        <mxCell id="YJyH6ZH2NPOHcgSRrEZ7-7" value="&amp;lt;&amp;lt;include&amp;gt;&amp;gt;" style="edgeLabel;html=1;align=center;verticalAlign=middle;resizable=0;points=[];" vertex="1" connectable="0" parent="1yCJpeNbYUM7dJ_sFZWB-39">
          <mxGeometry x="-0.3684" y="-3" relative="1" as="geometry">
            <mxPoint as="offset" />
          </mxGeometry>
        </mxCell>
        <mxCell id="1yCJpeNbYUM7dJ_sFZWB-15" value="&lt;pre style=&quot;font-family: var(--ds-font-family-code); overflow: auto; padding: calc(var(--ds-md-zoom)*8px)calc(var(--ds-md-zoom)*12px); text-wrap-mode: wrap; word-break: break-all; font-size: 12.573px; text-align: start; margin-top: 0px !important; margin-bottom: 0px !important;&quot;&gt;&lt;pre style=&quot;font-family: var(--ds-font-family-code); overflow: auto; padding: calc(var(--ds-md-zoom)*8px)calc(var(--ds-md-zoom)*12px); text-wrap-mode: wrap; word-break: break-all; margin-top: 0px !important; margin-bottom: 0px !important;&quot;&gt;&lt;font style=&quot;color: rgb(0, 0, 0);&quot;&gt;Modifier rendez-vous&lt;/font&gt;&lt;/pre&gt;&lt;/pre&gt;" style="ellipse;whiteSpace=wrap;html=1;" parent="1" vertex="1">
          <mxGeometry x="480" y="690" width="180" height="40" as="geometry" />
        </mxCell>
        <mxCell id="1yCJpeNbYUM7dJ_sFZWB-16" value="&lt;pre style=&quot;font-family: var(--ds-font-family-code); overflow: auto; padding: calc(var(--ds-md-zoom)*8px)calc(var(--ds-md-zoom)*12px); text-wrap-mode: wrap; word-break: break-all; font-size: 12.573px; text-align: start; margin-top: 0px !important; margin-bottom: 0px !important;&quot;&gt;&lt;pre style=&quot;font-family: var(--ds-font-family-code); overflow: auto; padding: calc(var(--ds-md-zoom)*8px)calc(var(--ds-md-zoom)*12px); text-wrap-mode: wrap; word-break: break-all; margin-top: 0px !important; margin-bottom: 0px !important;&quot;&gt;&lt;font style=&quot;color: rgb(0, 0, 0);&quot;&gt;Générer certificats&lt;/font&gt;&lt;/pre&gt;&lt;/pre&gt;" style="ellipse;whiteSpace=wrap;html=1;" parent="1" vertex="1">
          <mxGeometry x="380" y="1050" width="180" height="40" as="geometry" />
        </mxCell>
        <mxCell id="1yCJpeNbYUM7dJ_sFZWB-23" style="rounded=0;orthogonalLoop=1;jettySize=auto;html=1;entryX=0;entryY=0.5;entryDx=0;entryDy=0;endArrow=none;startFill=0;" parent="1" source="1yCJpeNbYUM7dJ_sFZWB-3" target="1yCJpeNbYUM7dJ_sFZWB-12" edge="1">
          <mxGeometry relative="1" as="geometry" />
        </mxCell>
        <mxCell id="1yCJpeNbYUM7dJ_sFZWB-36" style="rounded=0;orthogonalLoop=1;jettySize=auto;html=1;exitX=1;exitY=0.5;exitDx=0;exitDy=0;endArrow=open;endFill=0;dashed=1;dashPattern=8 8;entryX=0.231;entryY=0.951;entryDx=0;entryDy=0;entryPerimeter=0;" parent="1" source="1yCJpeNbYUM7dJ_sFZWB-12" edge="1" target="1yCJpeNbYUM7dJ_sFZWB-7">
          <mxGeometry relative="1" as="geometry">
            <mxPoint x="810" y="690" as="targetPoint" />
          </mxGeometry>
        </mxCell>
        <mxCell id="YJyH6ZH2NPOHcgSRrEZ7-5" value="&amp;lt;&amp;lt;include&amp;gt;&amp;gt;" style="edgeLabel;html=1;align=center;verticalAlign=middle;resizable=0;points=[];" vertex="1" connectable="0" parent="1yCJpeNbYUM7dJ_sFZWB-36">
          <mxGeometry x="-0.2785" y="1" relative="1" as="geometry">
            <mxPoint as="offset" />
          </mxGeometry>
        </mxCell>
        <mxCell id="1yCJpeNbYUM7dJ_sFZWB-38" style="rounded=0;orthogonalLoop=1;jettySize=auto;html=1;entryX=0.106;entryY=0.791;entryDx=0;entryDy=0;entryPerimeter=0;exitX=1;exitY=0.5;exitDx=0;exitDy=0;endArrow=open;endFill=0;dashed=1;dashPattern=8 8;" parent="1" source="1yCJpeNbYUM7dJ_sFZWB-14" target="1yCJpeNbYUM7dJ_sFZWB-7" edge="1">
          <mxGeometry relative="1" as="geometry" />
        </mxCell>
        <mxCell id="YJyH6ZH2NPOHcgSRrEZ7-8" value="&amp;lt;&amp;lt;include&amp;gt;&amp;gt;" style="edgeLabel;html=1;align=center;verticalAlign=middle;resizable=0;points=[];" vertex="1" connectable="0" parent="1yCJpeNbYUM7dJ_sFZWB-38">
          <mxGeometry x="-0.1569" y="1" relative="1" as="geometry">
            <mxPoint as="offset" />
          </mxGeometry>
        </mxCell>
        <mxCell id="1yCJpeNbYUM7dJ_sFZWB-40" style="rounded=0;orthogonalLoop=1;jettySize=auto;html=1;entryX=0.643;entryY=1.044;entryDx=0;entryDy=0;entryPerimeter=0;exitX=1;exitY=0.5;exitDx=0;exitDy=0;dashed=1;dashPattern=8 8;endArrow=open;endFill=0;" parent="1" source="1yCJpeNbYUM7dJ_sFZWB-16" target="1yCJpeNbYUM7dJ_sFZWB-7" edge="1">
          <mxGeometry relative="1" as="geometry" />
        </mxCell>
        <mxCell id="YJyH6ZH2NPOHcgSRrEZ7-1" style="edgeStyle=orthogonalEdgeStyle;rounded=0;orthogonalLoop=1;jettySize=auto;html=1;entryX=0;entryY=0.5;entryDx=0;entryDy=0;endArrow=none;startFill=0;" edge="1" parent="1" source="1yCJpeNbYUM7dJ_sFZWB-6" target="1yCJpeNbYUM7dJ_sFZWB-14">
          <mxGeometry relative="1" as="geometry" />
        </mxCell>
        <mxCell id="YJyH6ZH2NPOHcgSRrEZ7-2" style="edgeStyle=orthogonalEdgeStyle;rounded=0;orthogonalLoop=1;jettySize=auto;html=1;entryX=0;entryY=0.5;entryDx=0;entryDy=0;startArrow=block;startFill=0;endArrow=none;" edge="1" parent="1" source="1yCJpeNbYUM7dJ_sFZWB-6" target="1yCJpeNbYUM7dJ_sFZWB-15">
          <mxGeometry relative="1" as="geometry">
            <Array as="points">
              <mxPoint x="440" y="680" />
              <mxPoint x="440" y="716" />
              <mxPoint x="480" y="716" />
            </Array>
          </mxGeometry>
        </mxCell>
        <mxCell id="YJyH6ZH2NPOHcgSRrEZ7-4" style="rounded=0;orthogonalLoop=1;jettySize=auto;html=1;dashed=1;dashPattern=8 8;endArrow=open;endFill=0;" edge="1" parent="1" source="YJyH6ZH2NPOHcgSRrEZ7-3">
          <mxGeometry relative="1" as="geometry">
            <mxPoint x="820" y="700" as="targetPoint" />
          </mxGeometry>
        </mxCell>
        <mxCell id="YJyH6ZH2NPOHcgSRrEZ7-6" value="&amp;lt;&amp;lt;include&amp;gt;&amp;gt;" style="edgeLabel;html=1;align=center;verticalAlign=middle;resizable=0;points=[];" vertex="1" connectable="0" parent="YJyH6ZH2NPOHcgSRrEZ7-4">
          <mxGeometry x="-0.2489" y="-3" relative="1" as="geometry">
            <mxPoint as="offset" />
          </mxGeometry>
        </mxCell>
        <mxCell id="YJyH6ZH2NPOHcgSRrEZ7-3" value="&lt;pre style=&quot;font-family: var(--ds-font-family-code); overflow: auto; padding: calc(var(--ds-md-zoom)*8px)calc(var(--ds-md-zoom)*12px); text-wrap-mode: wrap; word-break: break-all; font-size: 12.573px; text-align: start; margin-top: 0px !important; margin-bottom: 0px !important;&quot;&gt;&lt;pre style=&quot;font-family: var(--ds-font-family-code); overflow: auto; padding: calc(var(--ds-md-zoom)*8px)calc(var(--ds-md-zoom)*12px); text-wrap-mode: wrap; word-break: break-all; margin-top: 0px !important; margin-bottom: 0px !important;&quot;&gt;&lt;font style=&quot;color: rgb(0, 0, 0);&quot;&gt;Supprimer rendez-vous&lt;/font&gt;&lt;/pre&gt;&lt;/pre&gt;" style="ellipse;whiteSpace=wrap;html=1;" vertex="1" parent="1">
          <mxGeometry x="460" y="750" width="180" height="40" as="geometry" />
        </mxCell>
      </root>
    </mxGraphModel>
  </diagram>
</mxfile>
